<mxfile host="app.diagrams.net" modified="2023-08-21T23:19:18.610Z" agent="Mozilla/5.0 (Windows NT 10.0; Win64; x64) AppleWebKit/537.36 (KHTML, like Gecko) Chrome/115.0.0.0 Safari/537.36" etag="038Ml8L9HV42PgZDS5ae" version="21.6.8" type="device">
  <diagram name="Page-1" id="929967ad-93f9-6ef4-fab6-5d389245f69c">
    <mxGraphModel dx="1434" dy="816" grid="1" gridSize="10" guides="1" tooltips="1" connect="1" arrows="1" fold="1" page="1" pageScale="1.5" pageWidth="1169" pageHeight="826" background="none" math="0" shadow="0">
      <root>
        <mxCell id="0" style=";html=1;" />
        <mxCell id="1" style=";html=1;" parent="0" />
        <mxCell id="YHpTYqc0Ywda0I02fqmO-38" value="" style="rounded=0;whiteSpace=wrap;html=1;strokeColor=#457B9D;fontColor=#1D3557;fillColor=#A8DADC;fillStyle=auto;gradientColor=none;" vertex="1" parent="1">
          <mxGeometry x="300" y="340" width="600" height="560" as="geometry" />
        </mxCell>
        <mxCell id="YHpTYqc0Ywda0I02fqmO-2" value="" style="shape=umlActor;verticalLabelPosition=bottom;verticalAlign=top;html=1;outlineConnect=0;labelBackgroundColor=none;fillColor=#A8DADC;strokeColor=#6f0000;fontColor=#1D3557;" vertex="1" parent="1">
          <mxGeometry x="220" y="605" width="30" height="60" as="geometry" />
        </mxCell>
        <mxCell id="YHpTYqc0Ywda0I02fqmO-3" value="&lt;font color=&quot;#6f0000&quot;&gt;Visualizar produto final&lt;/font&gt;" style="ellipse;whiteSpace=wrap;html=1;labelBackgroundColor=none;fillColor=#A8DADC;strokeColor=#6f0000;fontColor=#1D3557;" vertex="1" parent="1">
          <mxGeometry x="730" y="560" width="120" height="80" as="geometry" />
        </mxCell>
        <mxCell id="YHpTYqc0Ywda0I02fqmO-4" value="&lt;font color=&quot;#6f0000&quot;&gt;Escolher sabor&lt;/font&gt;" style="ellipse;whiteSpace=wrap;html=1;labelBackgroundColor=none;fillColor=#A8DADC;strokeColor=#6f0000;fontColor=#1D3557;" vertex="1" parent="1">
          <mxGeometry x="510" y="450" width="120" height="80" as="geometry" />
        </mxCell>
        <mxCell id="YHpTYqc0Ywda0I02fqmO-5" value="&lt;font color=&quot;#6f0000&quot;&gt;Consultar forma de pagamento&lt;/font&gt;" style="ellipse;whiteSpace=wrap;html=1;labelBackgroundColor=none;fillColor=#A8DADC;strokeColor=#6f0000;fontColor=#1D3557;" vertex="1" parent="1">
          <mxGeometry x="670" y="350" width="120" height="80" as="geometry" />
        </mxCell>
        <mxCell id="YHpTYqc0Ywda0I02fqmO-6" value="&lt;font color=&quot;#6f0000&quot;&gt;Verificar preço de cada item por especificação&lt;/font&gt;" style="ellipse;whiteSpace=wrap;html=1;labelBackgroundColor=none;fillColor=#A8DADC;strokeColor=#6f0000;fontColor=#1D3557;" vertex="1" parent="1">
          <mxGeometry x="420" y="670" width="120" height="80" as="geometry" />
        </mxCell>
        <mxCell id="YHpTYqc0Ywda0I02fqmO-7" value="&lt;font color=&quot;#6f0000&quot;&gt;Escolher adicionais&lt;/font&gt;" style="ellipse;whiteSpace=wrap;html=1;labelBackgroundColor=none;fillColor=#A8DADC;strokeColor=#6f0000;fontColor=#1D3557;" vertex="1" parent="1">
          <mxGeometry x="440" y="550" width="120" height="80" as="geometry" />
        </mxCell>
        <mxCell id="YHpTYqc0Ywda0I02fqmO-8" value="&lt;font color=&quot;#6f0000&quot;&gt;Escolher cobertura&lt;/font&gt;" style="ellipse;whiteSpace=wrap;html=1;labelBackgroundColor=none;fillColor=#A8DADC;strokeColor=#6f0000;fontColor=#1D3557;" vertex="1" parent="1">
          <mxGeometry x="560" y="780" width="120" height="80" as="geometry" />
        </mxCell>
        <mxCell id="YHpTYqc0Ywda0I02fqmO-11" value="" style="endArrow=classic;html=1;rounded=0;dashed=1;exitX=1;exitY=0.5;exitDx=0;exitDy=0;labelBackgroundColor=none;fontColor=default;strokeColor=#6F0000;fillColor=#a20025;entryX=0;entryY=1;entryDx=0;entryDy=0;" edge="1" parent="1" source="YHpTYqc0Ywda0I02fqmO-6" target="YHpTYqc0Ywda0I02fqmO-3">
          <mxGeometry width="50" height="50" relative="1" as="geometry">
            <mxPoint x="706.21" y="686.72" as="sourcePoint" />
            <mxPoint x="553.7835931288073" y="695.0042712474617" as="targetPoint" />
          </mxGeometry>
        </mxCell>
        <mxCell id="YHpTYqc0Ywda0I02fqmO-12" value="" style="endArrow=classic;html=1;rounded=0;exitX=0.5;exitY=1;exitDx=0;exitDy=0;dashed=1;labelBackgroundColor=none;fontColor=default;strokeColor=#6F0000;fillColor=#a20025;" edge="1" parent="1" source="YHpTYqc0Ywda0I02fqmO-4" target="YHpTYqc0Ywda0I02fqmO-3">
          <mxGeometry width="50" height="50" relative="1" as="geometry">
            <mxPoint x="600" y="500" as="sourcePoint" />
            <mxPoint x="790" y="500" as="targetPoint" />
          </mxGeometry>
        </mxCell>
        <mxCell id="YHpTYqc0Ywda0I02fqmO-13" value="" style="endArrow=classic;html=1;rounded=0;exitX=0.5;exitY=0;exitDx=0;exitDy=0;entryX=0.5;entryY=1;entryDx=0;entryDy=0;dashed=1;labelBackgroundColor=none;fontColor=default;strokeColor=#6F0000;fillColor=#a20025;" edge="1" parent="1" source="YHpTYqc0Ywda0I02fqmO-8" target="YHpTYqc0Ywda0I02fqmO-3">
          <mxGeometry width="50" height="50" relative="1" as="geometry">
            <mxPoint x="600" y="655" as="sourcePoint" />
            <mxPoint x="790" y="655" as="targetPoint" />
          </mxGeometry>
        </mxCell>
        <mxCell id="YHpTYqc0Ywda0I02fqmO-16" value="" style="endArrow=classic;html=1;rounded=0;exitX=1;exitY=0.5;exitDx=0;exitDy=0;dashed=1;entryX=0;entryY=0.5;entryDx=0;entryDy=0;labelBackgroundColor=none;fontColor=default;strokeColor=#6F0000;fillColor=#a20025;" edge="1" parent="1" source="YHpTYqc0Ywda0I02fqmO-7" target="YHpTYqc0Ywda0I02fqmO-3">
          <mxGeometry width="50" height="50" relative="1" as="geometry">
            <mxPoint x="530" y="580" as="sourcePoint" />
            <mxPoint x="860" y="490" as="targetPoint" />
            <Array as="points">
              <mxPoint x="630" y="590" />
            </Array>
          </mxGeometry>
        </mxCell>
        <mxCell id="YHpTYqc0Ywda0I02fqmO-22" value="Usuário" style="text;html=1;align=center;verticalAlign=middle;resizable=0;points=[];autosize=1;strokeColor=none;fillColor=none;labelBackgroundColor=none;fontColor=#1D3557;" vertex="1" parent="1">
          <mxGeometry x="205" y="665" width="60" height="30" as="geometry" />
        </mxCell>
        <mxCell id="YHpTYqc0Ywda0I02fqmO-23" value="" style="endArrow=classic;html=1;rounded=0;exitX=0.75;exitY=0.1;exitDx=0;exitDy=0;exitPerimeter=0;entryX=0;entryY=0.5;entryDx=0;entryDy=0;labelBackgroundColor=none;fontColor=default;strokeColor=#6F0000;fillColor=#a20025;" edge="1" parent="1" source="YHpTYqc0Ywda0I02fqmO-2" target="YHpTYqc0Ywda0I02fqmO-4">
          <mxGeometry width="50" height="50" relative="1" as="geometry">
            <mxPoint x="850" y="630" as="sourcePoint" />
            <mxPoint x="900" y="580" as="targetPoint" />
          </mxGeometry>
        </mxCell>
        <mxCell id="YHpTYqc0Ywda0I02fqmO-24" value="" style="endArrow=classic;html=1;rounded=0;exitX=1;exitY=0.3333333333333333;exitDx=0;exitDy=0;exitPerimeter=0;entryX=0;entryY=0.5;entryDx=0;entryDy=0;labelBackgroundColor=none;fontColor=default;strokeColor=#6F0000;fillColor=#a20025;" edge="1" parent="1" source="YHpTYqc0Ywda0I02fqmO-2" target="YHpTYqc0Ywda0I02fqmO-7">
          <mxGeometry width="50" height="50" relative="1" as="geometry">
            <mxPoint x="253" y="621" as="sourcePoint" />
            <mxPoint x="550" y="440" as="targetPoint" />
          </mxGeometry>
        </mxCell>
        <mxCell id="YHpTYqc0Ywda0I02fqmO-25" value="" style="endArrow=classic;html=1;rounded=0;exitX=0.5;exitY=0.5;exitDx=0;exitDy=0;exitPerimeter=0;entryX=0;entryY=0.5;entryDx=0;entryDy=0;labelBackgroundColor=none;fontColor=default;strokeColor=#6F0000;fillColor=#a20025;" edge="1" parent="1" source="YHpTYqc0Ywda0I02fqmO-2" target="YHpTYqc0Ywda0I02fqmO-6">
          <mxGeometry width="50" height="50" relative="1" as="geometry">
            <mxPoint x="263" y="631" as="sourcePoint" />
            <mxPoint x="560" y="450" as="targetPoint" />
          </mxGeometry>
        </mxCell>
        <mxCell id="YHpTYqc0Ywda0I02fqmO-26" value="" style="endArrow=classic;html=1;rounded=0;exitX=1;exitY=1;exitDx=0;exitDy=0;exitPerimeter=0;entryX=0;entryY=0.5;entryDx=0;entryDy=0;labelBackgroundColor=none;fontColor=default;strokeColor=#6F0000;fillColor=#a20025;" edge="1" parent="1" source="YHpTYqc0Ywda0I02fqmO-2" target="YHpTYqc0Ywda0I02fqmO-8">
          <mxGeometry width="50" height="50" relative="1" as="geometry">
            <mxPoint x="321.5" y="981" as="sourcePoint" />
            <mxPoint x="618.5" y="800" as="targetPoint" />
          </mxGeometry>
        </mxCell>
        <mxCell id="YHpTYqc0Ywda0I02fqmO-27" value="" style="endArrow=classic;html=1;rounded=0;exitX=0.25;exitY=0.1;exitDx=0;exitDy=0;exitPerimeter=0;entryX=0;entryY=0.5;entryDx=0;entryDy=0;labelBackgroundColor=none;fontColor=default;strokeColor=#6F0000;fillColor=#a20025;" edge="1" parent="1" source="YHpTYqc0Ywda0I02fqmO-2" target="YHpTYqc0Ywda0I02fqmO-5">
          <mxGeometry width="50" height="50" relative="1" as="geometry">
            <mxPoint x="243" y="560" as="sourcePoint" />
            <mxPoint x="510" y="439" as="targetPoint" />
            <Array as="points">
              <mxPoint x="390" y="440" />
            </Array>
          </mxGeometry>
        </mxCell>
        <mxCell id="YHpTYqc0Ywda0I02fqmO-31" value="System" style="shape=umlFrame;whiteSpace=wrap;html=1;pointerEvents=0;fillStyle=solid;labelBackgroundColor=none;fillColor=#A8DADC;strokeColor=#457B9D;fontColor=#1D3557;" vertex="1" parent="1">
          <mxGeometry x="300" y="340" width="600" height="560" as="geometry" />
        </mxCell>
        <mxCell id="YHpTYqc0Ywda0I02fqmO-32" value="&lt;font color=&quot;#6f0000&quot;&gt;Consultar forma de entrega&lt;/font&gt;" style="ellipse;whiteSpace=wrap;html=1;labelBackgroundColor=none;fillColor=#A8DADC;strokeColor=#6f0000;fontColor=#1D3557;" vertex="1" parent="1">
          <mxGeometry x="740" y="440" width="120" height="80" as="geometry" />
        </mxCell>
        <mxCell id="YHpTYqc0Ywda0I02fqmO-33" value="" style="endArrow=classic;html=1;rounded=0;exitX=0.5;exitY=0;exitDx=0;exitDy=0;exitPerimeter=0;labelBackgroundColor=none;fontColor=default;strokeColor=#6F0000;fillColor=#a20025;" edge="1" parent="1" source="YHpTYqc0Ywda0I02fqmO-2" target="YHpTYqc0Ywda0I02fqmO-32">
          <mxGeometry width="50" height="50" relative="1" as="geometry">
            <mxPoint x="238" y="621" as="sourcePoint" />
            <mxPoint x="680" y="400" as="targetPoint" />
            <Array as="points">
              <mxPoint x="560" y="430" />
            </Array>
          </mxGeometry>
        </mxCell>
      </root>
    </mxGraphModel>
  </diagram>
</mxfile>
